<?xml version="1.0" encoding="utf-8"?>
<!-- Generator: Adobe Illustrator 19.1.0, SVG Export Plug-In . SVG Version: 6.00 Build 0)  -->
<svg version="1.1" id="Layer_1" xmlns="http://www.w3.org/2000/svg" xmlns:xlink="http://www.w3.org/1999/xlink" x="0px" y="0px"
	 viewBox="138 -54 512 512" style="enable-background:new 138 -54 512 512;" xml:space="preserve">
<style type="text/css">
	.st0{fill:none;stroke:#A9CCDB;stroke-miterlimit:10;}
	.st1{fill:#777777;}
	.st2{fill:#4EA4F2;}
</style>
<g id="Grid_1_">
	<g id="Layer_1_1_">
		<g id="Grid">
			<g>
				<rect x="138" y="-54" class="st0" width="512" height="512"/>
				<path class="st0" d="M650,426"/>
				<path class="st0" d="M138,426"/>
				<path class="st0" d="M650,394"/>
				<path class="st0" d="M138,394"/>
				<path class="st0" d="M650,362"/>
				<path class="st0" d="M138,362"/>
				<path class="st0" d="M650,330"/>
				<path class="st0" d="M138,330"/>
				<line class="st0" x1="138" y1="298" x2="650" y2="298"/>
				<line class="st0" x1="138" y1="266" x2="650" y2="266"/>
				<line class="st0" x1="138" y1="234" x2="650" y2="234"/>
				<line class="st0" x1="138" y1="202" x2="650" y2="202"/>
				<line class="st0" x1="138" y1="170" x2="650" y2="170"/>
				<line class="st0" x1="138" y1="138" x2="650" y2="138"/>
				<line class="st0" x1="138" y1="106" x2="650" y2="106"/>
				<line class="st0" x1="138" y1="74" x2="650" y2="74"/>
				<line class="st0" x1="138" y1="42" x2="650" y2="42"/>
				<line class="st0" x1="138" y1="10" x2="650" y2="10"/>
				<line class="st0" x1="138" y1="-22" x2="650" y2="-22"/>
				<line class="st0" x1="618" y1="-54" x2="618" y2="458"/>
				<line class="st0" x1="586" y1="-54" x2="586" y2="458"/>
				<line class="st0" x1="554" y1="-54" x2="554" y2="458"/>
				<line class="st0" x1="522" y1="-54" x2="522" y2="458"/>
				<path class="st0" d="M490,458"/>
				<path class="st0" d="M490-54"/>
				<path class="st0" d="M458,458"/>
				<path class="st0" d="M458-54"/>
				<path class="st0" d="M426,458"/>
				<path class="st0" d="M426-54"/>
				<path class="st0" d="M394,458"/>
				<path class="st0" d="M394-54"/>
				<path class="st0" d="M362,458"/>
				<path class="st0" d="M362-54"/>
				<path class="st0" d="M330,458"/>
				<path class="st0" d="M330-54"/>
				<line class="st0" x1="298" y1="-54" x2="298" y2="458"/>
				<line class="st0" x1="266" y1="-54" x2="266" y2="458"/>
				<line class="st0" x1="234" y1="-54" x2="234" y2="458"/>
				<line class="st0" x1="202" y1="-54" x2="202" y2="458"/>
				<line class="st0" x1="170" y1="-54" x2="170" y2="458"/>
			</g>
		</g>
	</g>
</g>
<g>
	<g>
		<path class="st1" d="M538,42c-5.3,0-10.6,0.4-15.8,1.1C492.3,2.4,445.2-22,394-22S295.7,2.4,265.8,43.1
			c-5.2-0.8-10.5-1.1-15.8-1.1c-61.8,0-112,50.2-112,112s50.2,112,112,112c13.7,0,27.1-2.5,39.7-7.3c29,25.2,65.8,39.3,104.3,39.3
			c38.5,0,75.3-14.1,104.3-39.3c12.6,4.8,26,7.3,39.7,7.3c61.8,0,112-50.2,112-112S599.8,42,538,42z M538,234
			c-17.1,0-32.9-5.5-45.9-14.7C468.6,247.6,433.6,266,394,266c-39.6,0-74.6-18.4-98.1-46.7c-13,9.2-28.8,14.7-45.9,14.7
			c-44.2,0-80-35.8-80-80s35.8-80,80-80c10.8,0,21.1,2.2,30.4,6.1C301.7,38.7,344.3,10,394,10s92.3,28.7,113.5,70.1
			c9.4-3.9,19.7-6.1,30.5-6.1c44.2,0,80,35.8,80,80S582.2,234,538,234z"/>
	</g>
</g>
<line class="st0" x1="137" y1="425" x2="649" y2="425"/>
<line class="st0" x1="137" y1="393" x2="649" y2="393"/>
<line class="st0" x1="137" y1="361" x2="649" y2="361"/>
<line class="st0" x1="137" y1="329" x2="649" y2="329"/>
<line class="st0" x1="489" y1="-55" x2="489" y2="457"/>
<line class="st0" x1="457" y1="-55" x2="457" y2="457"/>
<line class="st0" x1="425" y1="-55" x2="425" y2="457"/>
<line class="st0" x1="393" y1="-55" x2="393" y2="457"/>
<line class="st0" x1="361" y1="-55" x2="361" y2="457"/>
<line class="st0" x1="329" y1="-55" x2="329" y2="457"/>
<path class="st2" d="M361,393c0,17.7,14.3,32,32,32s32-14.3,32-32s-32-64-32-64S361,375.3,361,393z"/>
</svg>
