<?xml version="1.0" encoding="utf-8"?>
<!-- Generator: Adobe Illustrator 19.1.0, SVG Export Plug-In . SVG Version: 6.00 Build 0)  -->
<svg version="1.1" id="Layer_1" xmlns="http://www.w3.org/2000/svg" xmlns:xlink="http://www.w3.org/1999/xlink" x="0px" y="0px"
	 viewBox="138 -54 512 512" style="enable-background:new 138 -54 512 512;" xml:space="preserve">
<style type="text/css">
	.st0{fill:none;stroke:#A9CCDB;stroke-miterlimit:10;}
	.st1{fill:#777777;}
	.st2{fill:#4EA4F2;}
</style>
<g id="Grid_1_">
	<g id="Layer_1_1_">
		<g id="Grid">
			<g>
				<polyline class="st0" points="138,458 138,-54 650,-54 650,458 				"/>
				<path class="st0" d="M650,426"/>
				<path class="st0" d="M138,426"/>
				<path class="st0" d="M650,394"/>
				<path class="st0" d="M138,394"/>
				<path class="st0" d="M650,362"/>
				<path class="st0" d="M138,362"/>
				<path class="st0" d="M650,330"/>
				<path class="st0" d="M138,330"/>
				<path class="st0" d="M650,298"/>
				<path class="st0" d="M138,298"/>
				<path class="st0" d="M650,266"/>
				<path class="st0" d="M138,266"/>
				<line class="st0" x1="138" y1="234" x2="650" y2="234"/>
				<line class="st0" x1="138" y1="202" x2="650" y2="202"/>
				<line class="st0" x1="138" y1="170" x2="650" y2="170"/>
				<line class="st0" x1="138" y1="138" x2="650" y2="138"/>
				<line class="st0" x1="138" y1="106" x2="650" y2="106"/>
				<line class="st0" x1="138" y1="74" x2="650" y2="74"/>
				<line class="st0" x1="138" y1="42" x2="650" y2="42"/>
				<line class="st0" x1="138" y1="10" x2="650" y2="10"/>
				<line class="st0" x1="138" y1="-22" x2="650" y2="-22"/>
				<line class="st0" x1="618" y1="-54" x2="618" y2="458"/>
				<path class="st0" d="M586-54"/>
				<path class="st0" d="M554-54"/>
				<path class="st0" d="M522-54"/>
				<path class="st0" d="M490-54"/>
				<path class="st0" d="M458-54"/>
				<path class="st0" d="M426-54"/>
				<path class="st0" d="M394-54"/>
				<path class="st0" d="M362-54"/>
				<path class="st0" d="M330-54"/>
				<path class="st0" d="M298-54"/>
				<path class="st0" d="M266,458"/>
				<path class="st0" d="M266-54"/>
				<path class="st0" d="M234,458"/>
				<path class="st0" d="M234-54"/>
				<line class="st0" x1="202" y1="-54" x2="202" y2="458"/>
				<line class="st0" x1="170" y1="-54" x2="170" y2="458"/>
			</g>
		</g>
	</g>
</g>
<path class="st1" d="M538,10c-5.3,0-10.6,0.4-15.8,1.1C492.3-29.6,445.2-54,394-54s-98.3,24.4-128.2,65.1
	c-5.2-0.8-10.5-1.1-15.8-1.1c-61.8,0-112,50.2-112,112s50.2,112,112,112c13.7,0,27.1-2.5,39.7-7.3c29,25.2,65.8,39.3,104.3,39.3
	c38.5,0,75.3-14.1,104.3-39.3c12.6,4.8,26,7.3,39.7,7.3c61.8,0,112-50.2,112-112S599.8,10,538,10z M538,202
	c-17.1,0-32.9-5.5-45.9-14.7C468.6,215.6,433.6,234,394,234c-39.6,0-74.6-18.4-98.1-46.7c-13,9.2-28.8,14.7-45.9,14.7
	c-44.2,0-80-35.8-80-80s35.8-80,80-80c10.8,0,21.1,2.2,30.4,6.1C301.7,6.7,344.3-22,394-22s92.3,28.7,113.5,70.1
	c9.4-3.9,19.7-6.1,30.5-6.1c44.2,0,80,35.8,80,80S582.2,202,538,202z"/>
<path class="st2" d="M363,426c0,17.7,14.3,32,32,32s32-14.3,32-32s-32-64-32-64S363,408.3,363,426z M490,394c0,17.7,14.3,32,32,32
	s32-14.3,32-32s-32-64-32-64S490,376.3,490,394z M234,330c0,17.7,14.3,32,32,32s32-14.3,32-32s-32-64-32-64S234,312.3,234,330z"/>
</svg>
