<?xml version="1.0" encoding="utf-8"?>
<!-- Generator: Adobe Illustrator 19.1.0, SVG Export Plug-In . SVG Version: 6.00 Build 0)  -->
<svg version="1.1" id="Layer_1" xmlns="http://www.w3.org/2000/svg" xmlns:xlink="http://www.w3.org/1999/xlink" x="0px" y="0px"
	 viewBox="138 -54 512 512" style="enable-background:new 138 -54 512 512;" xml:space="preserve">
<style type="text/css">
	.st0{fill:none;stroke:#A9CCDB;stroke-miterlimit:10;}
	.st1{fill:#777777;}
	.st2{fill:#939393;}
</style>
<g id="Grid_1_">
	<g id="Layer_1_1_">
		<g id="Grid">
			<g>
				<rect x="138" y="-54" class="st0" width="512" height="512"/>
				<path class="st0" d="M650,426"/>
				<path class="st0" d="M138,426"/>
				<path class="st0" d="M650,394"/>
				<path class="st0" d="M138,394"/>
				<path class="st0" d="M650,362"/>
				<path class="st0" d="M138,362"/>
				<path class="st0" d="M650,330"/>
				<path class="st0" d="M138,330"/>
				<path class="st0" d="M650,298"/>
				<path class="st0" d="M138,298"/>
				<path class="st0" d="M650,266"/>
				<path class="st0" d="M138,266"/>
				<path class="st0" d="M650,234"/>
				<path class="st0" d="M138,234"/>
				<path class="st0" d="M650,202"/>
				<path class="st0" d="M138,202"/>
				<path class="st0" d="M650,170"/>
				<path class="st0" d="M138,170"/>
				<line class="st0" x1="138" y1="138" x2="650" y2="138"/>
				<line class="st0" x1="138" y1="106" x2="650" y2="106"/>
				<line class="st0" x1="138" y1="74" x2="650" y2="74"/>
				<line class="st0" x1="138" y1="42" x2="650" y2="42"/>
				<line class="st0" x1="138" y1="10" x2="650" y2="10"/>
				<line class="st0" x1="138" y1="-22" x2="650" y2="-22"/>
				<line class="st0" x1="618" y1="-54" x2="618" y2="458"/>
				<line class="st0" x1="586" y1="-54" x2="586" y2="458"/>
				<line class="st0" x1="554" y1="-54" x2="554" y2="458"/>
				<line class="st0" x1="522" y1="-54" x2="522" y2="458"/>
				<path class="st0" d="M490,458"/>
				<path class="st0" d="M490-54"/>
				<path class="st0" d="M458,458"/>
				<path class="st0" d="M458-54"/>
				<path class="st0" d="M426,458"/>
				<path class="st0" d="M426-54"/>
				<path class="st0" d="M394,458"/>
				<path class="st0" d="M394-54"/>
				<path class="st0" d="M362,458"/>
				<path class="st0" d="M362-54"/>
				<path class="st0" d="M330,458"/>
				<path class="st0" d="M330-54"/>
				<path class="st0" d="M298,458"/>
				<path class="st0" d="M298-54"/>
				<line class="st0" x1="266" y1="-54" x2="266" y2="458"/>
				<line class="st0" x1="234" y1="-54" x2="234" y2="458"/>
				<line class="st0" x1="202" y1="-54" x2="202" y2="458"/>
				<line class="st0" x1="170" y1="-54" x2="170" y2="458"/>
			</g>
		</g>
	</g>
</g>
<g>
	<g>
		<path class="st1" d="M538,10c-5.3,0-10.6,0.4-15.8,1.1C492.3-29.6,445.2-54,394-54s-98.3,24.4-128.2,65.1
			c-5.2-0.8-10.5-1.1-15.8-1.1c-61.8,0-112,50.2-112,112s50.2,112,112,112c11.8,0,23.3-2.2,34.4-5.8c1.1-5.1,2.7-10,5.4-14.6
			c3.9-6.9,9.6-12.3,16-16.5c-3.3-3.2-6.9-6.1-9.9-9.7c-13,9.2-28.8,14.7-45.9,14.7c-44.2,0-80-35.8-80-80s35.8-80,80-80
			c10.8,0,21.1,2.2,30.4,6.1C301.7,6.7,344.3-22,394-22s92.3,28.7,113.5,70.1c9.4-3.9,19.7-6.1,30.5-6.1c44.2,0,80,35.8,80,80
			s-35.8,80-80,80c-17.1,0-32.9-5.5-45.9-14.7c-2.9,3.6-6.6,6.5-9.9,9.7c6.5,4.2,12.1,9.7,16,16.6c2.7,4.6,4.4,9.6,5.4,14.6
			c11.1,3.6,22.6,5.8,34.4,5.8c61.8,0,112-50.2,112-112S599.8,10,538,10z"/>
	</g>
</g>
<line class="st0" x1="137" y1="425" x2="649" y2="425"/>
<line class="st0" x1="137" y1="393" x2="649" y2="393"/>
<line class="st0" x1="137" y1="361" x2="649" y2="361"/>
<line class="st0" x1="137" y1="329" x2="649" y2="329"/>
<line class="st0" x1="137" y1="297" x2="649" y2="297"/>
<line class="st0" x1="137" y1="265" x2="649" y2="265"/>
<line class="st0" x1="137" y1="233" x2="649" y2="233"/>
<line class="st0" x1="137" y1="201" x2="649" y2="201"/>
<line class="st0" x1="137" y1="169" x2="649" y2="169"/>
<line class="st0" x1="489" y1="-55" x2="489" y2="457"/>
<line class="st0" x1="457" y1="-55" x2="457" y2="457"/>
<line class="st0" x1="425" y1="-55" x2="425" y2="457"/>
<line class="st0" x1="393" y1="-55" x2="393" y2="457"/>
<line class="st0" x1="361" y1="-55" x2="361" y2="457"/>
<line class="st0" x1="329" y1="-55" x2="329" y2="457"/>
<line class="st0" x1="297" y1="-55" x2="297" y2="457"/>
<path class="st2" d="M463,292.7l-18-10.4c0.5-3.1,1-6.3,1-9.6c0-3.3-0.4-6.5-1-9.6l18-10.4c8.4-4.9,11.3-15.7,6.5-24.1
	c-4.9-8.5-15.7-11.4-24.1-6.5l-18.2,10.5c-4.9-4.1-10.4-7.4-16.5-9.6v-20.9c0-9.8-7.9-17.7-17.7-17.7s-17.7,7.9-17.7,17.7v20.9
	c-6.1,2.2-11.6,5.5-16.5,9.6l-18.1-10.5c-8.5-4.9-19.3-2-24.2,6.5c-4.9,8.4-1.9,19.2,6.5,24.1l18,10.4c-0.6,3.1-1,6.3-1,9.6
	c0,3.3,0.4,6.5,1,9.6l-18,10.4c-8.5,4.9-11.4,15.8-6.5,24.2s15.7,11.3,24.1,6.4l18.2-10.4c4.9,4.1,10.4,7.4,16.5,9.6v20.9
	c0,9.7,7.9,17.6,17.7,17.6s17.7-7.9,17.7-17.6v-20.9c6.1-2.2,11.7-5.4,16.5-9.6l18.2,10.5c8.5,4.9,19.2,2,24.1-6.4
	C474.4,308.4,471.5,297.6,463,292.7z M393,290.4c-9.8,0-17.7-7.9-17.7-17.7S383.2,255,393,255s17.7,7.9,17.7,17.6
	S402.8,290.4,393,290.4z"/>
</svg>
