<?xml version="1.0" encoding="utf-8"?>
<!-- Generator: Adobe Illustrator 19.1.0, SVG Export Plug-In . SVG Version: 6.00 Build 0)  -->
<svg version="1.1" id="Layer_1" xmlns="http://www.w3.org/2000/svg" xmlns:xlink="http://www.w3.org/1999/xlink" x="0px" y="0px"
	 viewBox="138 -54 512 512" style="enable-background:new 138 -54 512 512;" xml:space="preserve">
<style type="text/css">
	.st0{fill:#FFA500;}
	.st1{fill:none;stroke:#A9CCDB;stroke-miterlimit:10;}
	.st2{fill:#777777;}
</style>
<g>
	<path class="st0" d="M345.6,10c8.8,0,16-7.2,16-16v-32.1c0-8.8-7.2-16-16-16c-8.8,0-16,7.2-16,16v32.1C329.6,2.8,336.8,10,345.6,10
		z"/>
	<path class="st0" d="M470.3,52.2L493,29.6c6.3-6.3,6.3-16.4,0-22.7s-16.4-6.3-22.7,0l-22.7,22.7c-6.3,6.3-6.3,16.4,0,22.7
		C453.9,58.5,464,58.5,470.3,52.2z"/>
	<path class="st0" d="M244.2,202.1L267,211l14.6-8.5c-10.1-13.4-16.1-30.1-16.1-48.2c0-44.3,35.9-80.1,80.1-80.1
		c44.3,0,80.1,35.9,80.1,80.1c0,2.6-0.1,5.2-0.4,7.8h17.5l14.3,3.9c0.4-3.8,0.6-7.7,0.6-11.7C457.8,92.4,407.5,42,345.6,42
		S233.4,92.4,233.4,154.2C233.4,171.4,237.3,187.6,244.2,202.1z"/>
	<path class="st0" d="M185.4,138.2h-32.1c-8.8,0-16,7.2-16,16s7.2,16,16,16h32.1c8.8,0,16-7.2,16-16S194.2,138.2,185.4,138.2z"/>
	<path class="st0" d="M538,138.2h-32.1c-8.8,0-16,7.2-16,16s7.2,16,16,16H538c8.8,0,16-7.2,16-16S546.8,138.2,538,138.2z"/>
	<path class="st0" d="M243.6,52.2c6.3-6.3,6.3-16.4,0-22.7L221,6.9c-6.3-6.3-16.4-6.3-22.7,0c-6.3,6.3-6.3,16.4,0,22.7L221,52.2
		C227.2,58.5,237.4,58.5,243.6,52.2z"/>
</g>
<g id="Grid_1_">
	<g id="Layer_1_1_">
		<g id="Grid">
			<g>
				<rect x="138" y="-54" class="st1" width="512" height="512"/>
				<line class="st1" x1="138" y1="426" x2="650" y2="426"/>
				<line class="st1" x1="138" y1="394" x2="650" y2="394"/>
				<line class="st1" x1="138" y1="362" x2="650" y2="362"/>
				<line class="st1" x1="138" y1="330" x2="650" y2="330"/>
				<line class="st1" x1="138" y1="298" x2="650" y2="298"/>
				<line class="st1" x1="138" y1="266" x2="650" y2="266"/>
				<line class="st1" x1="138" y1="234" x2="650" y2="234"/>
				<line class="st1" x1="138" y1="202" x2="650" y2="202"/>
				<line class="st1" x1="138" y1="170" x2="650" y2="170"/>
				<line class="st1" x1="138" y1="138" x2="650" y2="138"/>
				<line class="st1" x1="138" y1="106" x2="650" y2="106"/>
				<line class="st1" x1="138" y1="74" x2="650" y2="74"/>
				<line class="st1" x1="138" y1="42" x2="650" y2="42"/>
				<line class="st1" x1="138" y1="10" x2="650" y2="10"/>
				<line class="st1" x1="138" y1="-22" x2="650" y2="-22"/>
				<line class="st1" x1="618" y1="-54" x2="618" y2="458"/>
				<line class="st1" x1="586" y1="-54" x2="586" y2="458"/>
				<line class="st1" x1="554" y1="-54" x2="554" y2="458"/>
				<line class="st1" x1="452.1" y1="-119.9" x2="452.1" y2="392.1"/>
				<line class="st1" x1="490" y1="-54" x2="490" y2="458"/>
				<line class="st1" x1="458" y1="-54" x2="458" y2="458"/>
				<line class="st1" x1="426" y1="-54" x2="426" y2="458"/>
				<line class="st1" x1="394" y1="-54" x2="394" y2="458"/>
				<line class="st1" x1="362" y1="-54" x2="362" y2="458"/>
				<line class="st1" x1="330" y1="-54" x2="330" y2="458"/>
				<line class="st1" x1="298" y1="-54" x2="298" y2="458"/>
				<line class="st1" x1="266" y1="-54" x2="266" y2="458"/>
				<line class="st1" x1="234" y1="-54" x2="234" y2="458"/>
				<line class="st1" x1="202" y1="-54" x2="202" y2="458"/>
				<line class="st1" x1="170" y1="-54" x2="170" y2="458"/>
			</g>
		</g>
	</g>
</g>
<path class="st2" d="M538,202c-5.3,0-10.6,0.4-15.8,1.1c-29.9-40.7-77-65.1-128.2-65.1s-98.3,24.4-128.2,65.1
	c-5.2-0.8-10.5-1.1-15.8-1.1c-61.8,0-112,50.2-112,112s50.2,112,112,112c13.7,0,27.1-2.5,39.7-7.3c29,25.2,65.8,39.3,104.3,39.3
	c38.5,0,75.3-14.1,104.3-39.3c12.6,4.8,26,7.3,39.7,7.3c61.8,0,112-50.2,112-112S599.8,202,538,202z M538,394
	c-17.1,0-32.9-5.5-45.9-14.7C468.6,407.6,433.6,426,394,426c-39.6,0-74.6-18.4-98.1-46.7c-13,9.2-28.8,14.7-45.9,14.7
	c-44.2,0-80-35.8-80-80s35.8-80,80-80c10.8,0,21.1,2.2,30.4,6.1C301.7,198.7,344.3,170,394,170s92.3,28.7,113.5,70.1
	c9.4-3.9,19.7-6.1,30.5-6.1c44.2,0,80,35.8,80,80S582.2,394,538,394z"/>
</svg>
